<svg width="18" height="18" viewBox="0 0 18 18" fill="none" xmlns="http://www.w3.org/2000/svg">
<path fill-rule="evenodd" clip-rule="evenodd" d="M8.6201 0.0779306C8.86271 -0.0259769 9.13729 -0.0259769 9.3799 0.0779306L17.415 3.51929C17.7699 3.67129 18 4.02021 18 4.4063V13.5915C18 13.9775 17.77 14.3263 17.4152 14.4784L9.38011 17.922C9.13738 18.026 8.86262 18.026 8.61989 17.922L0.584832 14.4784C0.230039 14.3263 0 13.9775 0 13.5915V4.4063C0 4.02021 0.230136 3.67129 0.585041 3.51929L8.6201 0.0779306ZM9.96494 8.48825V15.5717L16.0701 12.9552V5.87004L9.96494 8.48825ZM8.03506 15.5717L1.92988 12.9552V5.87116L8.03506 8.48425V15.5717ZM14.5841 4.4063L9 2.01466L3.41588 4.4063L9 6.79793L14.5841 4.4063Z" fill="#005BCC"/>
</svg>
