<svg width="18" height="18" viewBox="0 0 18 18" fill="none" xmlns="http://www.w3.org/2000/svg">
<path fill-rule="evenodd" clip-rule="evenodd" d="M16.4681 1.91489H1.53192V0H16.4681V1.91489ZM1.16754 3.06755C1.25704 2.62001 1.64999 2.29787 2.10639 2.29787H15.8936C16.35 2.29787 16.743 2.62001 16.8325 3.06755L17.9814 8.81223C18.0377 9.0935 17.9648 9.38518 17.783 9.60701C17.6011 9.82884 17.3294 9.95745 17.0425 9.95745H16.8511V16.0851H17.617V18H0.382987V16.0851H1.14894V9.95745H0.957454C0.67061 9.95745 0.398877 9.82884 0.217021 9.60701C0.0351648 9.38518 -0.0376536 9.0935 0.0186012 8.81223L1.16754 3.06755ZM3.06384 9.95745V16.0851H14.9362V9.95745H14.5532V13.4043H3.44681V9.95745H3.06384ZM5.36171 9.95745V11.4894H12.6383V9.95745H5.36171ZM15.8746 8.04255L15.1087 4.21277H2.89131L2.12535 8.04255H15.8746Z" fill="#005BCC"/>
</svg>
