<svg width="20" height="20" viewBox="0 0 20 20" fill="none" xmlns="http://www.w3.org/2000/svg">
<path d="M6.14286 7.42857V6.42857C5.59057 6.42857 5.14286 6.87629 5.14286 7.42857H6.14286ZM6.14286 8.71429L6.84996 9.42139L7.14286 9.1285V8.71429H6.14286ZM3.94801 9.09086L3.2409 9.79797H3.2409L3.94801 9.09086ZM8.71429 17.0714H9.71429V16.6572L9.42139 16.3643L8.71429 17.0714ZM7.42857 15.7857H6.42857V16.1999L6.72146 16.4928L7.42857 15.7857ZM7.42857 13.8571H8.42857V13.4429L8.13568 13.15L7.42857 13.8571ZM6.14286 12.5714H5.14286V12.9856L5.43575 13.2785L6.14286 12.5714ZM6.14286 11.2857V10.2857C5.59057 10.2857 5.14286 10.7334 5.14286 11.2857H6.14286ZM11.5714 1V3.57143H13.5714V1H11.5714ZM11.2857 3.85714H10V5.85714H11.2857V3.85714ZM7.42857 6.42857H6.14286V8.42857H7.42857V6.42857ZM5.14286 7.42857V8.71429H7.14286V7.42857H5.14286ZM5.43575 8.00718L5.05917 8.38376L6.47339 9.79797L6.84996 9.42139L5.43575 8.00718ZM4.65511 8.38376L2.34996 6.07861L0.93575 7.49282L3.2409 9.79797L4.65511 8.38376ZM7.71429 6.14286C7.71429 6.30065 7.58637 6.42857 7.42857 6.42857V8.42857C8.69094 8.42857 9.71429 7.40522 9.71429 6.14286H7.71429ZM10 3.85714C8.73763 3.85714 7.71429 4.88049 7.71429 6.14286H9.71429C9.71429 5.98506 9.8422 5.85714 10 5.85714V3.85714ZM5.05917 8.38376C4.9476 8.49533 4.76669 8.49533 4.65511 8.38376L3.2409 9.79797C4.13353 10.6906 5.58076 10.6906 6.47339 9.79797L5.05917 8.38376ZM11.5714 3.57143C11.5714 3.72922 11.4435 3.85714 11.2857 3.85714V5.85714C12.5481 5.85714 13.5714 4.83379 13.5714 3.57143H11.5714ZM9.71429 19V17.0714H7.71429V19H9.71429ZM9.42139 16.3643L8.13568 15.0786L6.72146 16.4928L8.00718 17.7785L9.42139 16.3643ZM8.42857 15.7857V13.8571H6.42857V15.7857H8.42857ZM8.13568 13.15L6.84996 11.8643L5.43575 13.2785L6.72146 14.5642L8.13568 13.15ZM7.14286 12.5714V11.2857H5.14286V12.5714H7.14286ZM6.14286 12.2857H11.2857V10.2857H6.14286V12.2857ZM11.5714 12.5714V13.4286H13.5714V12.5714H11.5714ZM14.2857 16.1429H17.7143V14.1429H14.2857V16.1429ZM12.8571 14.7143C12.8571 15.5033 13.4967 16.1429 14.2857 16.1429V14.1429C14.6013 14.1429 14.8571 14.3987 14.8571 14.7143H12.8571ZM13 14.8571C12.9211 14.8571 12.8571 14.7932 12.8571 14.7143H14.8571C14.8571 13.6886 14.0257 12.8571 13 12.8571V14.8571ZM11.5714 13.4286C11.5714 14.2176 12.211 14.8571 13 14.8571V12.8571C13.3156 12.8571 13.5714 13.113 13.5714 13.4286H11.5714ZM11.2857 12.2857C11.4435 12.2857 11.5714 12.4136 11.5714 12.5714H13.5714C13.5714 11.3091 12.5481 10.2857 11.2857 10.2857V12.2857ZM10 18C5.58172 18 2 14.4183 2 10H0C0 15.5228 4.47715 20 10 20V18ZM18 10C18 14.4183 14.4183 18 10 18V20C15.5228 20 20 15.5228 20 10H18ZM10 2C14.4183 2 18 5.58172 18 10H20C20 4.47715 15.5228 0 10 0V2ZM10 0C4.47715 0 0 4.47715 0 10H2C2 5.58172 5.58172 2 10 2V0Z" fill="#005BCC"/>
</svg>
