<svg width="18" height="18" viewBox="0 0 18 18" fill="none" xmlns="http://www.w3.org/2000/svg">
<path fill-rule="evenodd" clip-rule="evenodd" d="M8.55347 0.118581C8.83016 -0.0395271 9.16984 -0.0395271 9.44652 0.118581L17.5465 4.74715C17.8269 4.90739 18 5.2056 18 5.52857V6.36159C18 11.7498 14.4281 16.4851 9.24725 17.9654C9.08565 18.0115 8.91435 18.0115 8.75275 17.9654C3.57189 16.4851 0 11.7498 0 6.36159V5.52857C0 5.2056 0.173057 4.90739 0.453475 4.74715L8.55347 0.118581ZM1.8 6.05086V6.36159C1.8 10.8599 4.72589 14.8234 9 16.1606C13.2741 14.8234 16.2 10.8599 16.2 6.36159V6.05086L9 1.93658L1.8 6.05086ZM13.7528 6.66937L9.12421 12.4551C8.97315 12.6439 8.75246 12.764 8.51187 12.7883C8.27128 12.8126 8.03103 12.7391 7.84526 12.5843L4.37383 9.6914L5.52617 8.3086L8.29223 10.6137L12.3472 5.54492L13.7528 6.66937Z" fill="#005BCC"/>
</svg>
