<svg width="26" height="22" viewBox="0 0 26 22" fill="none" xmlns="http://www.w3.org/2000/svg">
<path d="M2.7752 11.0592L13 21L23.2248 11.0592C24.3614 9.95415 25 8.45536 25 6.89256C25 3.63819 22.2864 1 18.9391 1C17.3316 1 15.79 1.62082 14.6534 2.72589L13 4.33333L11.3466 2.72589C10.21 1.62082 8.66837 1 7.06092 1C3.71356 1 1 3.63819 1 6.89256C1 8.45536 1.63856 9.95415 2.7752 11.0592Z" fill="#E0EEFF"/>
<path d="M13 21L12.3029 21.717C12.691 22.0943 13.309 22.0943 13.6971 21.717L13 21ZM2.7752 11.0592L2.07812 11.7762H2.07812L2.7752 11.0592ZM11.3466 2.72589L10.6496 3.44289L11.3466 2.72589ZM13 4.33333L12.3029 5.05033C12.691 5.42767 13.309 5.42767 13.6971 5.05033L13 4.33333ZM14.6534 2.72589L13.9563 2.00889V2.00889L14.6534 2.72589ZM13.6971 20.283L3.47228 10.3422L2.07812 11.7762L12.3029 21.717L13.6971 20.283ZM22.5277 10.3422L12.3029 20.283L13.6971 21.717L23.9219 11.7762L22.5277 10.3422ZM10.6496 3.44289L12.3029 5.05033L13.6971 3.61634L12.0437 2.0089L10.6496 3.44289ZM13.6971 5.05033L15.3504 3.44288L13.9563 2.00889L12.3029 3.61634L13.6971 5.05033ZM18.9391 0C17.0754 0 15.2825 0.71953 13.9563 2.00889L15.3504 3.44288C16.2975 2.52211 17.5879 2 18.9391 2V0ZM24 6.89256C24 8.18091 23.4738 9.42239 22.5277 10.3422L23.9219 11.7762C25.249 10.4859 26 8.72981 26 6.89256H24ZM26 6.89256C26 3.05953 22.812 0 18.9391 0V2C21.7609 2 24 4.21684 24 6.89256H26ZM7.06092 2C8.4121 2 9.70247 2.52211 10.6496 3.44289L12.0437 2.0089C10.7175 0.719532 8.92464 0 7.06092 0V2ZM2 6.89256C2 4.21684 4.23911 2 7.06092 2V0C3.18802 0 0 3.05953 0 6.89256H2ZM3.47228 10.3422C2.52615 9.42238 2 8.18091 2 6.89256H0C0 8.72981 0.75096 10.4859 2.07812 11.7762L3.47228 10.3422Z" fill="#005BCC"/>
</svg>
