<svg width="31" height="30" viewBox="0 0 31 30" fill="none" xmlns="http://www.w3.org/2000/svg">
<path d="M30.1809 15.3375C30.1809 14.35 30.0934 13.4125 29.9434 12.5H15.8184V18.1375H23.9059C23.5434 19.9875 22.4809 21.55 20.9059 22.6125V26.3625H25.7309C28.5559 23.75 30.1809 19.9 30.1809 15.3375Z" fill="#4285F4"/>
<path d="M15.8191 30C19.8691 30 23.2566 28.65 25.7316 26.3625L20.9066 22.6125C19.5566 23.5125 17.8441 24.0625 15.8191 24.0625C11.9066 24.0625 8.59414 21.425 7.40664 17.8625H2.43164V21.725C4.89414 26.625 9.95664 30 15.8191 30Z" fill="#34A853"/>
<path d="M7.40586 17.8625C7.09336 16.9625 6.93086 16 6.93086 15C6.93086 14 7.10586 13.0375 7.40586 12.1375V8.27496H2.43086C1.40586 10.3 0.818359 12.575 0.818359 15C0.818359 17.425 1.40586 19.7 2.43086 21.725L7.40586 17.8625Z" fill="#FBBC05"/>
<path d="M15.8191 5.9375C18.0316 5.9375 20.0066 6.7 21.5691 8.1875L25.8441 3.9125C23.2566 1.4875 19.8691 0 15.8191 0C9.95664 0 4.89414 3.375 2.43164 8.275L7.40664 12.1375C8.59414 8.575 11.9066 5.9375 15.8191 5.9375Z" fill="#EA4335"/>
</svg>
