<svg width="34" height="28" viewBox="0 0 34 28" fill="none" xmlns="http://www.w3.org/2000/svg">
<path d="M3.36693 14.077L17 27L30.6331 14.077C32.1486 12.6404 33 10.692 33 8.66032C33 4.42964 29.3819 1 24.9188 1C22.7755 1 20.72 1.80707 19.2045 3.24366L17 5.33333L14.7955 3.24366C13.28 1.80707 11.2245 1 9.08122 1C4.61809 1 1 4.42964 1 8.66032C1 10.692 1.85141 12.6404 3.36693 14.077Z" fill="#E0EEFF"/>
<path d="M17 27L16.312 27.7258C16.6978 28.0914 17.3022 28.0914 17.688 27.7258L17 27ZM3.36693 14.077L2.67898 14.8027L2.67898 14.8027L3.36693 14.077ZM30.6331 14.077L31.321 14.8027L30.6331 14.077ZM14.7955 3.24366L14.1076 3.96941L14.7955 3.24366ZM17 5.33333L16.312 6.05909C16.6978 6.42475 17.3022 6.42475 17.688 6.05909L17 5.33333ZM19.2045 3.24366L18.5165 2.5179V2.5179L19.2045 3.24366ZM17.688 26.2742L4.05489 13.3512L2.67898 14.8027L16.312 27.7258L17.688 26.2742ZM29.9451 13.3512L16.312 26.2742L17.688 27.7258L31.321 14.8027L29.9451 13.3512ZM14.1076 3.96941L16.312 6.05909L17.688 4.60758L15.4835 2.5179L14.1076 3.96941ZM17.688 6.05909L19.8925 3.96941L18.5165 2.5179L16.312 4.60758L17.688 6.05909ZM24.9188 0C22.527 0 20.2232 0.90013 18.5165 2.5179L19.8925 3.96941C21.2168 2.714 23.024 2 24.9188 2V0ZM32 8.66032C32 10.409 31.2677 12.0976 29.9451 13.3512L31.321 14.8027C33.0295 13.1833 34 10.975 34 8.66032H32ZM34 8.66032C34 3.82763 29.8831 0 24.9188 0V2C28.8807 2 32 5.03165 32 8.66032H34ZM9.08122 2C10.976 2 12.7832 2.714 14.1076 3.96941L15.4835 2.5179C13.7768 0.900132 11.473 0 9.08122 0V2ZM2 8.66032C2 5.03165 5.1193 2 9.08122 2V0C4.11687 0 0 3.82763 0 8.66032H2ZM4.05489 13.3512C2.73232 12.0975 2 10.409 2 8.66032H0C0 10.975 0.970501 13.1832 2.67898 14.8027L4.05489 13.3512Z" fill="#005BCC"/>
</svg>
