<svg width="21" height="22" viewBox="0 0 21 22" fill="none" xmlns="http://www.w3.org/2000/svg">
<path d="M5.07143 7.85113L4.22304 7.32176L4.07143 7.56474V7.85113H5.07143ZM8.73246 1.98384L9.58085 2.51321L8.73246 1.98384ZM12.3519 4.07381L11.454 3.63361V3.63361L12.3519 4.07381ZM10.5 7.85113L9.6021 7.41093C9.45015 7.72087 9.46879 8.08726 9.65141 8.38019C9.83403 8.67311 10.1548 8.85113 10.5 8.85113V7.85113ZM20 14.7716L20.8056 15.364L21 15.0997V14.7716H20ZM16.7429 19.2007L17.5485 19.7931L16.7429 19.2007ZM11.5607 1.30292L12.0827 0.449947V0.449947L11.5607 1.30292ZM0 7.15909V21H2V7.15909H0ZM5.91982 8.38051L9.58085 2.51321L7.88407 1.45447L4.22304 7.32176L5.91982 8.38051ZM11.454 3.63361L9.6021 7.41093L11.3979 8.29134L13.2498 4.51402L11.454 3.63361ZM10.5 8.85113H17.2857V6.85113H10.5V8.85113ZM19 10.6193V14.7716H21V10.6193H19ZM19.1944 14.1791L15.9372 18.6082L17.5485 19.7931L20.8056 15.364L19.1944 14.1791ZM14.5714 19.308H7.78571V21.308H14.5714V19.308ZM6.07143 17.5398V7.85113H4.07143V17.5398H6.07143ZM17.2857 8.85113C18.214 8.85113 19 9.62415 19 10.6193H21C21 8.55683 19.3555 6.85113 17.2857 6.85113V8.85113ZM7.78571 19.308C6.85739 19.308 6.07143 18.5349 6.07143 17.5398H4.07143C4.07143 19.6023 5.71593 21.308 7.78571 21.308V19.308ZM11.0388 2.1559C11.5242 2.45294 11.7172 3.09673 11.454 3.63361L13.2498 4.51402C13.9598 3.06572 13.4634 1.29482 12.0827 0.449947L11.0388 2.1559ZM15.9372 18.6082C15.6102 19.0529 15.1029 19.308 14.5714 19.308V21.308C15.7486 21.308 16.8503 20.7425 17.5485 19.7931L15.9372 18.6082ZM9.58085 2.51321C9.90063 2.00073 10.546 1.85438 11.0388 2.1559L12.0827 0.449947C10.6396 -0.433069 8.77629 0.024573 7.88407 1.45447L9.58085 2.51321Z" fill="#219653"/>
</svg>
