<svg width="20" height="20" viewBox="0 0 20 20" fill="none" xmlns="http://www.w3.org/2000/svg">
<path d="M14.5 5.50294L7.10706 10L14.5 14.5088M19 3.57143C19 4.99086 17.848 6.14286 16.4286 6.14286C15.0091 6.14286 13.8571 4.99086 13.8571 3.57143C13.8571 2.152 15.0091 1 16.4286 1C17.848 1 19 2.152 19 3.57143ZM19 16.4286C19 17.848 17.848 19 16.4286 19C15.0091 19 13.8571 17.848 13.8571 16.4286C13.8571 15.0091 15.0091 13.8571 16.4286 13.8571C17.848 13.8571 19 15.0091 19 16.4286ZM6.14286 10C6.14286 11.4194 4.99086 12.5714 3.57143 12.5714C2.152 12.5714 1 11.4194 1 10C1 8.58057 2.152 7.42857 3.57143 7.42857C4.99086 7.42857 6.14286 8.58057 6.14286 10Z" stroke="#878787" stroke-width="2" stroke-linecap="square"/>
</svg>
