<svg width="31" height="30" viewBox="0 0 31 30" fill="none" xmlns="http://www.w3.org/2000/svg">
<path fill-rule="evenodd" clip-rule="evenodd" d="M10.9 0H20.1C28.5 0 30.5 2 30.5 10.4V19.6C30.5 28 28.5 30 20.1 30H10.9C2.5 30 0.5 28 0.5 19.6V10.4C0.5 2 2.5 0 10.9 0Z" fill="#2787F5"/>
<path fill-rule="evenodd" clip-rule="evenodd" d="M25.0678 10.3353C25.2068 9.87184 25.0678 9.53125 24.4063 9.53125H22.2188C21.6626 9.53125 21.4061 9.82547 21.2671 10.1499C21.2671 10.1499 20.1546 12.8614 18.5788 14.6227C18.0689 15.1325 17.8371 15.2947 17.559 15.2947C17.42 15.2947 17.2187 15.1325 17.2187 14.6691V10.3353C17.2187 9.77914 17.0573 9.53125 16.5938 9.53125H13.1563C12.8087 9.53125 12.5996 9.7894 12.5996 10.0341C12.5996 10.5613 13.3875 10.6829 13.4688 12.1662V15.3875C13.4688 16.0937 13.3412 16.2218 13.0631 16.2218C12.3215 16.2218 10.5177 13.4982 9.44778 10.3817C9.23812 9.77594 9.02782 9.53125 8.46876 9.53125H6.28126C5.65626 9.53125 5.53125 9.82547 5.53125 10.1499C5.53125 10.7293 6.27286 13.603 8.98431 17.4037C10.7919 19.9993 13.3388 21.4062 15.6563 21.4062C17.0467 21.4062 17.2188 21.0937 17.2188 20.5555V18.5938C17.2188 17.9688 17.3505 17.844 17.7908 17.844C18.1152 17.844 18.6715 18.0062 19.9693 19.2577C21.4525 20.7409 21.697 21.4062 22.5313 21.4062H24.7188C25.3438 21.4062 25.6563 21.0938 25.476 20.477C25.2787 19.8624 24.5706 18.9706 23.6309 17.9135C23.121 17.311 22.3563 16.6621 22.1245 16.3376C21.8001 15.9205 21.8928 15.7351 22.1245 15.3643C22.1245 15.3643 24.7897 11.6099 25.0678 10.3353Z" fill="white"/>
</svg>
